<?xml version="1.0" encoding="UTF-8"?>
<!DOCTYPE svg PUBLIC "-//W3C//DTD SVG 1.1//EN" "http://www.w3.org/Graphics/SVG/1.1/DTD/svg11.dtd">
<!-- Creator: CorelDRAW -->
<svg xmlns="http://www.w3.org/2000/svg" xml:space="preserve" width="1.9806in" height="2.36439in" version="1.1" style="shape-rendering:geometricPrecision; text-rendering:geometricPrecision; image-rendering:optimizeQuality; fill-rule:evenodd; clip-rule:evenodd"
viewBox="0 0 253.16 302.21"
 xmlns:xlink="http://www.w3.org/1999/xlink"
 xmlns:xodm="http://www.corel.com/coreldraw/odm/2003">
 <defs>
  <style type="text/css">
   <![CDATA[
    .fil0 {fill:black}
   ]]>
  </style>
 </defs>
 <g id="Layer_x0020_1">
  <metadata id="CorelCorpID_0Corel-Layer"/>
  <path class="fil0" d="M126.58 0c69.62,0 126.58,56.96 126.58,126.58l0 49.05c0,69.62 -56.96,126.58 -126.58,126.58 -69.62,0 -126.58,-56.96 -126.58,-126.58l0 -49.05c0,-69.62 56.96,-126.58 126.58,-126.58zm0 11.59c63.24,0 114.98,51.74 114.98,114.98l0 49.06c0,63.24 -51.74,114.98 -114.98,114.98 -63.24,0 -114.98,-51.74 -114.98,-114.98l0 -49.06c0,-63.24 51.74,-114.98 114.98,-114.98zm9.08 251.62c11.48,-9.96 31.11,-18.19 47.69,-31.61 40.7,-32.95 43.9,-65.07 33.66,-116.63 -3.86,-19.46 -4.55,-7.62 -27.89,12.87 -53.23,46.75 -74.65,58.05 -66.87,134.14 1.44,14.07 6.16,7.82 13.41,1.23zm-48.93 -157.15l24.86 0c4.38,0 7.94,3.56 7.94,7.94l0 25.51 3.45 0c5.99,0 10.88,-4.89 10.88,-10.88l0 -14.63c0,-4.38 3.56,-7.94 7.94,-7.94l24.64 0 0 -1.93c0,-5.99 -4.89,-10.88 -10.88,-10.88l-13.76 0c-4.38,0 -7.94,-3.56 -7.94,-7.94l0 -25.29 -3.45 0c-5.99,0 -10.88,4.89 -10.88,10.88l0 14.41c0,4.38 -3.56,7.94 -7.94,7.94l-13.98 0c-5.99,0 -10.88,4.89 -10.88,10.88l0 1.93zm28 153.57c-11.68,-8.47 -28.59,-16.25 -43.14,-28.03 -40.7,-32.95 -43.9,-65.07 -33.66,-116.63 3.86,-19.46 4.55,-7.62 27.89,12.87 27.64,24.28 46.7,39 57.55,58.19 -11.27,22.66 -11.01,48.72 -8.64,73.6z"/>
 </g>
</svg>
