<?xml version="1.0" encoding="UTF-8"?>
<!DOCTYPE svg PUBLIC "-//W3C//DTD SVG 1.1//EN" "http://www.w3.org/Graphics/SVG/1.1/DTD/svg11.dtd">
<!-- Creator: CorelDRAW -->
<svg xmlns="http://www.w3.org/2000/svg" xml:space="preserve" width="2.40449in" height="2.36438in" version="1.1" style="shape-rendering:geometricPrecision; text-rendering:geometricPrecision; image-rendering:optimizeQuality; fill-rule:evenodd; clip-rule:evenodd"
viewBox="0 0 907.37 892.24"
 xmlns:xlink="http://www.w3.org/1999/xlink"
 xmlns:xodm="http://www.corel.com/coreldraw/odm/2003">
 <defs>
  <style type="text/css">
   <![CDATA[
    .fil0 {fill:#7A863E}
   ]]>
  </style>
 </defs>
 <g id="Layer_x0020_1">
  <metadata id="CorelCorpID_0Corel-Layer"/>
  <g id="_2190746395680">
   <path class="fil0" d="M461.57 270.78c-11.46,-4.53 -11.7,-7.49 -19.26,-15.97l-13.83 -14.74c-120.77,-113.57 -313.27,3.3 -283.07,165.35 10.31,55.36 42.46,98.23 79.32,137.92 3.63,3.91 -0.01,-0.17 4.9,5.74 5.45,6.56 10.75,12.65 18.46,20.6l57.46 56.47c27.15,22.78 58.43,53.34 86.61,73.32l39.63 28.96c-3.03,-69.35 -24.01,-49.6 -0.49,-171.83 9.35,-48.6 40.87,-100.43 68.4,-126.63 7.97,-7.58 15.73,-17.4 22.67,-23.6 61.33,-54.75 124.85,-74.01 204.83,-86.47 14.9,-2.32 31.17,-1.02 45.89,-4.04 -23.87,-34.11 -16.62,-47.47 -68.44,-88.94 -59.83,-47.88 -155.92,-40.16 -209.55,10.17 -7.8,7.32 -23.82,29.06 -33.52,33.68z"/>
   <path class="fil0" d="M477.72 746.82c8.52,-8.16 8.18,-9.25 13.59,-24.24l32.87 -62.52c3.11,-4.96 3.1,-4.25 5.81,-8.17 15.19,-22.04 30.27,-43.33 51.21,-62.01l3.86 -3.36c43.83,-39.2 23.18,-29.76 84.45,-67.97l18.58 -13.09c9.23,-5.18 32.66,-17.22 44.67,-21.3 -51.36,36.44 -26.83,23.25 -54.3,46.38l-31.92 32.08c-25.88,24.59 -31.95,33.22 -54.72,62.67 -2.82,3.64 -3,3.64 -6.03,8.37 -18.7,29.2 -11.7,13.08 -31.5,50.71 -58.69,111.51 -38.62,100.56 60.21,88.46 29.39,-3.6 54.77,-14.46 80.73,-25.48 12.03,-5.1 27.79,-11.85 36.69,-17.29 10.68,-6.52 19.71,-15.08 30.28,-22.96 8.88,-6.62 21.27,-15.5 29.43,-24.3 6.66,-7.17 4.96,-6.14 11.97,-12.97 22.87,-22.33 39.81,-53.44 54.59,-80.89 30.63,-56.89 41.04,-154.86 48.37,-218.47 2.5,-21.7 -1.64,-37.08 -1.12,-56.81 -8.56,1.96 -32.69,11.91 -42.82,16.12 -47.58,19.81 -153.43,23.84 -228.02,49.59l-37.94 19.18c-31.5,21.6 -7.58,0.14 -48.36,33.58l-39.6 46.28c-10.51,15.32 -32.41,53.72 -38.33,75.99 -25.66,96.63 -13.14,105.55 7.35,192.39z"/>
   <path class="fil0" d="M792.15 726.01c-1.29,0.59 -3,0.05 -3.81,1.9 -0.67,1.55 -5.87,3 -6.97,3.64 -0.63,0.36 -7,4.41 -7.6,4.81 -53.76,36.02 -66.21,38.64 -123.49,67.74 -114.47,58.15 -230.22,64.98 -351.6,20 -32.76,-12.14 -85.96,-39.76 -110.41,-63.11l-81.31 -88.91c-4.23,-6.28 -3.25,-6.29 -7.58,-13.59 -54.45,-91.87 -76.56,-191.98 -50.52,-300.22 10.32,-42.89 24.46,-85.27 47.93,-122.01l26.33 -37.44c68.31,-88.66 166.39,-150.23 295.73,-157.05 57.43,-3.02 101.48,5.54 151.96,17.61 51.77,12.38 101.53,45.11 142.51,77.21 0.82,0.64 3.25,2.39 4.1,3.01 1.72,1.26 2.81,1.83 6.31,4.46 32.22,24.32 84.26,96.5 99.65,137.71l15.01 33.58 35.56 -15.71c-9.32,-31.43 -25.87,-68.73 -43.93,-94.68 -48.64,-69.89 -96.91,-119.28 -175.73,-155.86 -24.28,-11.27 -42.62,-21.17 -68.82,-26.87 -15.46,-3.36 -20.59,-7.84 -35.55,-11.09 -39.68,-8.64 -88.56,-13.25 -130.25,-10.22 -52.71,3.83 -107.02,17.21 -152.96,35.17l-49.87 25.36c-0.66,0.4 -1.53,0.95 -2.19,1.35 -22.92,14.04 -42.18,32.03 -63.38,47.11l-77.72 86.24 -25.95 45.39c-5.54,11.42 -8.72,16.01 -14.48,31.93 -9.26,25.55 -19.15,46.06 -22.85,72.75 -17.7,127.86 -17.36,192.9 40.84,313.46 16.3,33.77 55.52,81.87 82.82,106.25l36.54 30.77c9.84,6.27 6.04,4.42 14.17,11.14 29.48,24.33 85.73,52.4 124.54,64.27 12.49,3.82 24.19,5.15 37.48,9.21 30.07,9.2 96.06,12.36 127.77,10.3 116.91,-7.56 214.17,-45 295.9,-130.64 0.51,-0.53 1.24,-1.3 1.74,-1.84l20.11 -33.14z"/>
  </g>
 </g>
</svg>
