<?xml version="1.0" encoding="UTF-8"?>
<!DOCTYPE svg PUBLIC "-//W3C//DTD SVG 1.1//EN" "http://www.w3.org/Graphics/SVG/1.1/DTD/svg11.dtd">
<!-- Creator: CorelDRAW -->
<svg xmlns="http://www.w3.org/2000/svg" xml:space="preserve" width="1.9806in" height="2.36439in" version="1.1" style="shape-rendering:geometricPrecision; text-rendering:geometricPrecision; image-rendering:optimizeQuality; fill-rule:evenodd; clip-rule:evenodd"
viewBox="0 0 714.41 852.84"
 xmlns:xlink="http://www.w3.org/1999/xlink"
 xmlns:xodm="http://www.corel.com/coreldraw/odm/2003">
 <defs>
  <style type="text/css">
   <![CDATA[
    .fil0 {fill:#7A863E}
   ]]>
  </style>
 </defs>
 <g id="Layer_x0020_1">
  <metadata id="CorelCorpID_0Corel-Layer"/>
  <path class="fil0" d="M357.2 0c196.46,0 357.2,160.74 357.2,357.2l0 138.43c0,196.46 -160.74,357.2 -357.2,357.2 -196.46,0 -357.2,-160.74 -357.2,-357.2l0 -138.43c0,-196.47 160.74,-357.2 357.2,-357.2zm0 32.71c178.47,0 324.49,146.02 324.49,324.49l0 138.44c0,178.47 -146.02,324.49 -324.49,324.49 -178.47,0 -324.49,-146.02 -324.49,-324.49l0 -138.44c0,-178.47 146.02,-324.49 324.49,-324.49zm25.62 710.08c32.39,-28.11 87.79,-51.34 134.58,-89.21 114.87,-92.98 123.88,-183.63 94.99,-329.13 -10.9,-54.91 -12.83,-21.51 -78.7,36.33 -150.23,131.92 -210.65,163.83 -188.72,378.54 4.06,39.7 17.39,22.07 37.84,3.48zm-138.07 -443.48l70.15 0c12.35,0 22.4,10.05 22.4,22.4l0 71.99 9.73 0c16.91,0 30.7,-13.79 30.7,-30.7l0 -41.29c0,-12.35 10.05,-22.4 22.4,-22.4l69.53 0 0 -5.44c0,-16.91 -13.79,-30.7 -30.7,-30.7l-38.83 0c-12.35,0 -22.4,-10.05 -22.4,-22.4l0 -71.37 -9.73 0c-16.91,0 -30.7,13.79 -30.7,30.7l0 40.67c0,12.35 -10.05,22.4 -22.4,22.4l-39.45 0c-16.91,0 -30.7,13.79 -30.7,30.7l0 5.44zm79.03 433.38c-32.96,-23.89 -80.68,-45.86 -121.76,-79.11 -114.87,-92.98 -123.88,-183.63 -94.99,-329.13 10.9,-54.91 12.83,-21.51 78.7,36.33 78.01,68.51 131.8,110.05 162.42,164.23 -31.8,63.94 -31.06,137.49 -24.37,207.69z"/>
 </g>
</svg>
