<?xml version="1.0" encoding="UTF-8"?>
<!DOCTYPE svg PUBLIC "-//W3C//DTD SVG 1.1//EN" "http://www.w3.org/Graphics/SVG/1.1/DTD/svg11.dtd">
<!-- Creator: CorelDRAW -->
<svg xmlns="http://www.w3.org/2000/svg" xml:space="preserve" width="2.40449in" height="2.36438in" version="1.1" style="shape-rendering:geometricPrecision; text-rendering:geometricPrecision; image-rendering:optimizeQuality; fill-rule:evenodd; clip-rule:evenodd"
viewBox="0 0 1154.5 1135.24"
 xmlns:xlink="http://www.w3.org/1999/xlink"
 xmlns:xodm="http://www.corel.com/coreldraw/odm/2003">
 <defs>
  <style type="text/css">
   <![CDATA[
    .fil0 {fill:#113614}
    .fil1 {fill:#7A863E}
    .fil2 {fill:#C09D59}
   ]]>
  </style>
 </defs>
 <g id="Layer_x0020_1">
  <metadata id="CorelCorpID_0Corel-Layer"/>
  <g id="_2190746585312">
   <path class="fil0" d="M587.29 344.52c-14.58,-5.76 -14.89,-9.53 -24.5,-20.32l-17.6 -18.75c-153.66,-144.5 -398.59,4.19 -360.17,210.39 13.12,70.43 54.03,124.99 100.92,175.49 4.62,4.98 -0.01,-0.21 6.23,7.3 6.94,8.35 13.68,16.1 23.49,26.21l73.11 71.85c34.54,28.98 74.35,67.86 110.2,93.28l50.42 36.85c-3.86,-88.24 -30.55,-63.1 -0.62,-218.62 11.9,-61.83 52,-127.78 87.03,-161.12 10.14,-9.65 20.01,-22.14 28.85,-30.03 78.03,-69.67 158.86,-94.17 260.62,-110.02 18.96,-2.95 39.66,-1.3 58.39,-5.14 -30.37,-43.4 -21.15,-60.4 -87.08,-113.17 -76.12,-60.92 -198.39,-51.09 -266.62,12.94 -9.93,9.32 -30.3,36.98 -42.65,42.86z"/>
   <path class="fil1" d="M607.84 950.22c10.85,-10.38 10.41,-11.77 17.29,-30.85l41.83 -79.55c3.95,-6.31 3.95,-5.4 7.39,-10.4 19.32,-28.04 38.51,-55.13 65.16,-78.89l4.91 -4.27c55.76,-49.88 29.49,-37.87 107.45,-86.48l23.64 -16.66c11.75,-6.59 41.56,-21.91 56.83,-27.1 -65.35,46.37 -34.14,29.59 -69.09,59.01l-40.61 40.82c-32.93,31.29 -40.65,42.26 -69.63,79.74 -3.58,4.63 -3.82,4.64 -7.67,10.65 -23.79,37.15 -14.88,16.64 -40.08,64.52 -74.68,141.88 -49.14,127.95 76.61,112.55 37.4,-4.58 69.68,-18.4 102.72,-32.42 15.31,-6.5 35.35,-15.08 46.68,-22 13.59,-8.3 25.08,-19.19 38.53,-29.21 11.29,-8.43 27.06,-19.72 37.45,-30.91 8.47,-9.12 6.31,-7.81 15.22,-16.51 29.1,-28.41 50.65,-68 69.45,-102.92 38.97,-72.39 52.21,-197.04 61.55,-277.97 3.18,-27.62 -2.09,-47.18 -1.42,-72.28 -10.89,2.5 -41.59,15.15 -54.48,20.52 -60.54,25.21 -195.22,30.34 -290.12,63.1l-48.27 24.41c-40.08,27.49 -9.65,0.18 -61.54,42.73l-50.39 58.89c-13.38,19.5 -41.24,68.35 -48.77,96.69 -32.65,122.95 -16.72,134.3 9.35,244.79z"/>
   <path class="fil2" d="M1007.9 923.75c-1.65,0.75 -3.82,0.06 -4.85,2.42 -0.86,1.97 -7.46,3.82 -8.87,4.63 -0.8,0.46 -8.91,5.61 -9.67,6.12 -68.4,45.83 -84.24,49.17 -157.13,86.19 -145.65,73.98 -292.92,82.68 -447.36,25.45 -41.68,-15.44 -109.37,-50.59 -140.48,-80.3l-103.46 -113.13c-5.38,-7.99 -4.14,-8 -9.65,-17.3 -69.28,-116.89 -97.41,-244.27 -64.28,-381.98 13.13,-54.57 31.12,-108.5 60.98,-155.24l33.5 -47.64c86.92,-112.8 211.71,-191.15 376.28,-199.82 73.07,-3.85 129.12,7.05 193.34,22.41 65.86,15.75 129.19,57.4 181.32,98.24 1.04,0.81 4.14,3.04 5.22,3.83 2.18,1.6 3.58,2.33 8.02,5.68 40.99,30.94 107.21,122.79 126.79,175.22l19.1 42.73 45.24 -19.99c-11.86,-39.99 -32.92,-87.45 -55.9,-120.46 -61.88,-88.92 -123.3,-151.77 -223.59,-198.31 -30.89,-14.33 -54.23,-26.94 -87.57,-34.19 -19.68,-4.28 -26.2,-9.97 -45.23,-14.11 -50.49,-10.99 -112.68,-16.86 -165.73,-13 -67.07,4.88 -136.16,21.89 -194.62,44.75l-63.45 32.27c-0.84,0.5 -1.95,1.21 -2.79,1.72 -29.16,17.86 -53.67,40.76 -80.64,59.94l-98.89 109.73 -33.02 57.75c-7.04,14.53 -11.09,20.37 -18.43,40.62 -11.78,32.5 -24.37,58.6 -29.07,92.57 -22.52,162.68 -22.09,245.44 51.97,398.83 20.74,42.96 70.64,104.17 105.37,135.18l46.49 39.15c12.52,7.98 7.68,5.63 18.03,14.17 37.51,30.96 109.08,66.67 158.46,81.78 15.9,4.86 30.78,6.55 47.69,11.72 38.27,11.71 122.22,15.72 162.57,13.11 148.76,-9.62 272.51,-57.26 376.5,-166.22 0.65,-0.68 1.58,-1.65 2.21,-2.35l25.59 -42.16z"/>
  </g>
 </g>
</svg>
