<?xml version="1.0" encoding="UTF-8"?>
<!DOCTYPE svg PUBLIC "-//W3C//DTD SVG 1.1//EN" "http://www.w3.org/Graphics/SVG/1.1/DTD/svg11.dtd">
<!-- Creator: CorelDRAW -->
<svg xmlns="http://www.w3.org/2000/svg" xml:space="preserve" width="1.94869in" height="2.36438in" version="1.1" style="shape-rendering:geometricPrecision; text-rendering:geometricPrecision; image-rendering:optimizeQuality; fill-rule:evenodd; clip-rule:evenodd"
viewBox="0 0 853.38 1035.42"
 xmlns:xlink="http://www.w3.org/1999/xlink"
 xmlns:xodm="http://www.corel.com/coreldraw/odm/2003">
 <defs>
  <style type="text/css">
   <![CDATA[
    .fil0 {fill:#113614}
    .fil1 {fill:#7A863E}
    .fil2 {fill:#C09D59}
   ]]>
  </style>
 </defs>
 <g id="Layer_x0020_1">
  <metadata id="CorelCorpID_0Corel-Layer"/>
  <g id="_2852596397568">
   <rect class="fil0" x="-0" y="-0" width="853.38" height="1035.42" rx="426.69" ry="367.57"/>
   <path class="fil1" d="M460.38 933.74c42.59,-36.96 115.45,-67.51 176.97,-117.31 151.05,-122.27 162.9,-241.47 124.91,-432.8 -14.33,-72.21 -16.87,-28.28 -103.48,47.77 -197.54,173.46 -277,215.43 -248.16,497.77 5.33,52.21 22.87,29.02 49.76,4.58z"/>
   <path class="fil2" d="M278.82 350.57l92.24 0c16.24,0 29.45,13.21 29.45,29.45l0 94.66 12.79 0c22.24,0 40.37,-18.13 40.37,-40.37l0 -54.29c0,-16.24 13.21,-29.45 29.45,-29.45l91.43 0 0 -7.15c0,-22.24 -18.13,-40.37 -40.37,-40.37l-51.06 0c-16.24,0 -29.45,-13.21 -29.45,-29.45l0 -93.85 -12.79 0c-22.23,0 -40.37,18.13 -40.37,40.37l0 53.48c0,16.24 -13.22,29.45 -29.45,29.45l-51.87 0c-22.23,0 -40.37,18.13 -40.37,40.37l0 7.15z"/>
   <path class="fil1" d="M382.74 920.45c-43.34,-31.42 -106.09,-60.31 -160.11,-104.03 -151.05,-122.27 -162.9,-241.47 -124.92,-432.8 14.33,-72.21 16.87,-28.28 103.49,47.77 102.59,90.08 173.31,144.71 213.58,215.95 -41.82,84.08 -40.85,180.8 -32.04,273.11z"/>
  </g>
 </g>
</svg>
