<?xml version="1.0" encoding="UTF-8"?>
<!DOCTYPE svg PUBLIC "-//W3C//DTD SVG 1.1//EN" "http://www.w3.org/Graphics/SVG/1.1/DTD/svg11.dtd">
<!-- Creator: CorelDRAW -->
<svg xmlns="http://www.w3.org/2000/svg" xml:space="preserve" width="1.9806in" height="2.36439in" version="1.1" style="shape-rendering:geometricPrecision; text-rendering:geometricPrecision; image-rendering:optimizeQuality; fill-rule:evenodd; clip-rule:evenodd"
viewBox="0 0 8027.84 9583.42"
 xmlns:xlink="http://www.w3.org/1999/xlink"
 xmlns:xodm="http://www.corel.com/coreldraw/odm/2003">
 <defs>
  <style type="text/css">
   <![CDATA[
    .fil0 {fill:#113614}
   ]]>
  </style>
 </defs>
 <g id="Layer_x0020_1">
  <metadata id="CorelCorpID_0Corel-Layer"/>
  <path class="fil0" d="M4013.92 0c2207.68,0 4013.92,1806.23 4013.92,4013.92l0 1555.58c0,2207.68 -1806.24,4013.92 -4013.92,4013.92 -2207.68,0 -4013.92,-1806.24 -4013.92,-4013.92l0 -1555.58c0,-2207.69 1806.24,-4013.92 4013.92,-4013.92zm0 367.62c2005.44,0 3646.27,1640.81 3646.27,3646.27l0 1555.61c0,2005.48 -1640.83,3646.27 -3646.27,3646.27 -2005.46,0 -3646.27,-1640.8 -3646.27,-3646.27l0 -1555.61c0,-2005.46 1640.81,-3646.27 3646.27,-3646.27zm287.92 7979.22c363.99,-315.85 986.55,-576.95 1512.26,-1002.49 1290.8,-1044.81 1392.03,-2063.43 1067.45,-3698.49 -122.47,-617.07 -144.19,-241.68 -884.32,408.2 -1688.09,1482.35 -2367.09,1840.98 -2120.63,4253.68 45.58,446.13 195.45,248.01 425.24,39.1zm-1551.55 -4983.44l788.24 0c138.78,0 251.68,112.9 251.68,251.68l0 808.91 109.31 0c190.01,0 344.97,-154.96 344.97,-344.97l0 -463.94c0,-138.78 112.9,-251.68 251.68,-251.68l781.35 0 0 -61.1c0,-190.01 -154.96,-344.97 -344.97,-344.97l-436.38 0c-138.77,0 -251.68,-112.92 -251.68,-251.68l0 -802 -109.31 0c-190.01,0 -344.97,154.96 -344.97,344.97l0 457.03c0,138.77 -112.93,251.68 -251.68,251.68l-443.27 0c-190.01,0 -344.97,154.96 -344.97,344.97l0 61.1zm888.04 4869.92c-370.33,-268.46 -906.55,-515.34 -1368.18,-888.97 -1290.8,-1044.83 -1392.05,-2063.43 -1067.45,-3698.49 122.47,-617.07 144.19,-241.69 884.34,408.2 876.65,769.81 1481.04,1236.62 1825.12,1845.42 -357.37,718.48 -349.07,1544.97 -273.83,2333.84z"/>
 </g>
</svg>
