<?xml version="1.0" encoding="UTF-8"?>
<!DOCTYPE svg PUBLIC "-//W3C//DTD SVG 1.1//EN" "http://www.w3.org/Graphics/SVG/1.1/DTD/svg11.dtd">
<!-- Creator: CorelDRAW -->
<svg xmlns="http://www.w3.org/2000/svg" xml:space="preserve" width="2.40449in" height="2.36438in" version="1.1" style="shape-rendering:geometricPrecision; text-rendering:geometricPrecision; image-rendering:optimizeQuality; fill-rule:evenodd; clip-rule:evenodd"
viewBox="0 0 8477.85 8336.43"
 xmlns:xlink="http://www.w3.org/1999/xlink"
 xmlns:xodm="http://www.corel.com/coreldraw/odm/2003">
 <defs>
  <style type="text/css">
   <![CDATA[
    .fil0 {fill:#113614}
   ]]>
  </style>
 </defs>
 <g id="Layer_x0020_1">
  <metadata id="CorelCorpID_0Corel-Layer"/>
  <g id="_2190012493984">
   <path class="fil0" d="M4312.62 2529.93c-107.05,-42.28 -109.34,-69.99 -179.93,-149.25l-129.25 -137.69c-1128.4,-1061.09 -2926.94,30.79 -2644.84,1544.96 96.36,517.22 396.73,917.8 741.11,1288.65 33.93,36.55 -0.1,-1.55 45.75,53.62 50.94,61.3 100.47,118.21 172.49,192.45l536.87 527.63c253.65,212.84 545.95,498.35 809.22,685.01l370.27 270.6c-28.33,-647.95 -224.36,-463.38 -4.58,-1605.43 87.37,-454.04 381.82,-938.35 639.11,-1183.13 74.47,-70.85 146.95,-162.59 211.84,-220.53 572.98,-511.58 1166.56,-691.52 1913.78,-807.88 139.24,-21.68 291.24,-9.56 428.75,-37.72 -223.02,-318.7 -155.32,-443.55 -639.48,-831.02 -559,-447.34 -1456.83,-375.18 -1957.9,94.99 -72.92,68.42 -222.53,271.55 -313.22,314.72z"/>
   <path class="fil0" d="M4463.51 6977.73c79.65,-76.21 76.43,-86.47 127,-226.51l307.14 -584.12c29.01,-46.31 28.98,-39.69 54.25,-76.36 141.88,-205.89 282.82,-404.81 478.5,-579.34l36.08 -31.37c409.48,-366.29 216.58,-278.1 789.07,-635.07l173.63 -122.32c86.27,-48.4 305.19,-160.87 417.33,-199.03 -479.89,340.49 -250.68,217.26 -507.35,433.36l-298.23 299.74c-241.83,229.74 -298.53,310.34 -511.3,585.55 -26.31,34.02 -28.03,34.04 -56.32,78.22 -174.71,272.78 -109.27,122.18 -294.32,473.77 -548.39,1041.86 -360.84,939.55 562.54,826.49 274.63,-33.63 511.71,-135.13 754.28,-238.05 112.44,-47.7 259.62,-110.73 342.8,-161.54 99.79,-60.95 184.18,-140.88 282.93,-214.52 82.93,-61.87 198.72,-144.82 275,-227 62.19,-66.99 46.35,-57.33 111.8,-121.23 213.69,-208.64 371.96,-499.35 510.01,-755.78 286.16,-531.56 383.43,-1446.9 451.95,-2041.19 23.38,-202.79 -15.34,-346.42 -10.44,-530.79 -80,18.32 -305.44,111.26 -400.07,150.65 -444.59,185.11 -1433.55,222.78 -2130.46,463.33l-354.46 179.24c-294.32,201.83 -70.85,1.35 -451.88,313.79l-369.99 432.44c-98.24,143.17 -302.85,501.89 -358.12,710.04 -239.76,902.85 -122.75,986.17 68.64,1797.6z"/>
   <path class="fil0" d="M7401.28 6783.37c-12.09,5.48 -28.07,0.43 -35.62,17.78 -6.29,14.48 -54.82,28.07 -65.1,34.01 -5.87,3.39 -65.44,41.21 -70.99,44.93 -502.31,336.54 -618.61,361.04 -1153.83,632.89 -1069.57,543.27 -2151.03,607.13 -3285.07,186.91 -306.07,-113.41 -803.14,-371.46 -1031.59,-589.68l-759.74 -830.73c-39.48,-58.69 -30.37,-58.76 -70.84,-127.01 -508.78,-858.38 -715.32,-1793.75 -472.02,-2805 96.41,-400.75 228.51,-796.73 447.8,-1139.94l245.99 -349.85c638.25,-828.35 1554.65,-1403.68 2763.12,-1467.32 536.59,-28.26 948.16,51.79 1419.76,164.53 483.67,115.64 948.65,421.51 1331.52,721.37 7.62,5.97 30.4,22.31 38.3,28.11 16.03,11.74 26.28,17.07 58.91,41.7 301.03,227.21 787.3,901.67 931.05,1286.67l140.27 313.77 332.23 -146.79c-87.11,-293.64 -241.74,-642.19 -410.46,-884.6 -454.43,-652.99 -905.46,-1114.46 -1641.91,-1456.26 -226.82,-105.26 -398.21,-197.81 -643.02,-251.04 -144.49,-31.43 -192.39,-73.22 -332.12,-103.64 -370.78,-80.69 -827.42,-123.79 -1216.99,-95.46 -492.49,35.8 -999.88,160.77 -1429.18,328.61l-465.95 236.98c-6.19,3.69 -14.33,8.86 -20.46,12.6 -214.13,131.15 -394.13,299.29 -592.16,440.19l-726.14 805.77 -242.48 424.1c-51.72,106.73 -81.44,149.61 -135.33,298.29 -86.51,238.69 -178.96,430.31 -213.48,679.75 -165.34,1194.61 -162.24,1802.36 381.6,2928.74 152.33,315.49 518.7,764.93 773.77,992.68l341.37 287.47c91.94,58.61 56.41,41.32 132.4,104.04 275.47,227.36 801.03,489.55 1163.58,600.53 116.73,35.72 226.03,48.08 350.2,86.06 281,85.97 897.48,115.44 1193.76,96.28 1092.36,-70.66 2001.08,-420.48 2764.72,-1220.61 4.76,-4.98 11.58,-12.12 16.21,-17.23l187.9 -309.62z"/>
  </g>
 </g>
</svg>
