<?xml version="1.0" encoding="UTF-8"?>
<!DOCTYPE svg PUBLIC "-//W3C//DTD SVG 1.1//EN" "http://www.w3.org/Graphics/SVG/1.1/DTD/svg11.dtd">
<!-- Creator: CorelDRAW -->
<svg xmlns="http://www.w3.org/2000/svg" xml:space="preserve" width="2.40449in" height="2.36438in" version="1.1" style="shape-rendering:geometricPrecision; text-rendering:geometricPrecision; image-rendering:optimizeQuality; fill-rule:evenodd; clip-rule:evenodd"
viewBox="0 0 325.7 320.26"
 xmlns:xlink="http://www.w3.org/1999/xlink"
 xmlns:xodm="http://www.corel.com/coreldraw/odm/2003">
 <defs>
  <style type="text/css">
   <![CDATA[
    .fil0 {fill:black}
   ]]>
  </style>
 </defs>
 <g id="Layer_x0020_1">
  <metadata id="CorelCorpID_0Corel-Layer"/>
  <g id="_2190747363600">
   <path class="fil0" d="M165.68 97.19c-4.11,-1.62 -4.2,-2.69 -6.91,-5.73l-4.97 -5.29c-43.35,-40.76 -112.45,1.18 -101.61,59.35 3.7,19.87 15.24,35.26 28.47,49.51 1.3,1.4 -0,-0.06 1.76,2.06 1.96,2.35 3.86,4.54 6.63,7.39l20.63 20.27c9.74,8.18 20.97,19.15 31.09,26.32l14.22 10.4c-1.09,-24.89 -8.62,-17.8 -0.18,-61.68 3.36,-17.44 14.67,-36.05 24.55,-45.45 2.86,-2.72 5.65,-6.25 8.14,-8.47 22.01,-19.65 44.82,-26.57 73.52,-31.04 5.35,-0.83 11.19,-0.37 16.47,-1.45 -8.57,-12.24 -5.97,-17.04 -24.57,-31.93 -21.48,-17.19 -55.97,-14.41 -75.22,3.65 -2.8,2.63 -8.55,10.43 -12.03,12.09z"/>
   <path class="fil0" d="M171.48 268.07c3.06,-2.93 2.94,-3.32 4.88,-8.7l11.8 -22.44c1.11,-1.78 1.11,-1.52 2.08,-2.93 5.45,-7.91 10.87,-15.55 18.38,-22.26l1.39 -1.21c15.73,-14.07 8.32,-10.68 30.31,-24.4l6.67 -4.7c3.31,-1.86 11.72,-6.18 16.03,-7.65 -18.44,13.08 -9.63,8.35 -19.49,16.65l-11.46 11.52c-9.29,8.83 -11.47,11.92 -19.64,22.5 -1.01,1.31 -1.08,1.31 -2.16,3.01 -6.71,10.48 -4.2,4.69 -11.31,18.2 -21.07,40.03 -13.86,36.1 21.61,31.75 10.55,-1.29 19.66,-5.19 28.98,-9.15 4.32,-1.83 9.97,-4.25 13.17,-6.21 3.83,-2.34 7.08,-5.41 10.87,-8.24 3.19,-2.38 7.63,-5.56 10.56,-8.72 2.39,-2.57 1.78,-2.2 4.3,-4.66 8.21,-8.02 14.29,-19.18 19.59,-29.04 10.99,-20.42 14.73,-55.59 17.36,-78.42 0.9,-7.79 -0.59,-13.31 -0.4,-20.39 -3.07,0.7 -11.73,4.27 -15.37,5.79 -17.08,7.11 -55.07,8.56 -81.85,17.8l-13.62 6.89c-11.31,7.75 -2.72,0.05 -17.36,12.05l-14.21 16.61c-3.77,5.5 -11.63,19.28 -13.76,27.28 -9.21,34.69 -4.72,37.89 2.64,69.06z"/>
   <path class="fil0" d="M284.34 260.6c-0.46,0.21 -1.08,0.02 -1.37,0.68 -0.24,0.56 -2.11,1.08 -2.5,1.31 -0.23,0.13 -2.51,1.58 -2.73,1.73 -19.3,12.93 -23.77,13.87 -44.33,24.31 -41.09,20.87 -82.64,23.32 -126.2,7.18 -11.76,-4.36 -30.85,-14.27 -39.63,-22.65l-29.19 -31.91c-1.52,-2.25 -1.17,-2.26 -2.72,-4.88 -19.55,-32.98 -27.48,-68.91 -18.13,-107.76 3.7,-15.4 8.78,-30.61 17.2,-43.79l9.45 -13.44c24.52,-31.82 59.73,-53.93 106.15,-56.37 20.61,-1.09 36.43,1.99 54.54,6.32 18.58,4.44 36.44,16.19 51.15,27.71 0.29,0.23 1.17,0.86 1.47,1.08 0.62,0.45 1.01,0.66 2.26,1.6 11.56,8.73 30.25,34.64 35.77,49.43l5.39 12.05 12.76 -5.64c-3.35,-11.28 -9.29,-24.67 -15.77,-33.98 -17.46,-25.09 -34.79,-42.81 -63.08,-55.95 -8.71,-4.04 -15.3,-7.6 -24.7,-9.64 -5.55,-1.21 -7.39,-2.81 -12.76,-3.98 -14.24,-3.1 -31.79,-4.76 -46.75,-3.67 -18.92,1.38 -38.41,6.18 -54.91,12.62l-17.9 9.1c-0.24,0.14 -0.55,0.34 -0.79,0.48 -8.23,5.04 -15.14,11.5 -22.75,16.91l-27.9 30.96 -9.32 16.29c-1.99,4.1 -3.13,5.75 -5.2,11.46 -3.32,9.17 -6.88,16.53 -8.2,26.11 -6.35,45.89 -6.23,69.24 14.66,112.51 5.85,12.12 19.93,29.39 29.73,38.14l13.11 11.04c3.53,2.25 2.17,1.59 5.09,4 10.58,8.73 30.77,18.81 44.7,23.07 4.48,1.37 8.68,1.85 13.45,3.31 10.8,3.3 34.48,4.43 45.86,3.7 41.97,-2.71 76.88,-16.15 106.21,-46.89 0.18,-0.19 0.44,-0.47 0.62,-0.66l7.22 -11.89z"/>
  </g>
 </g>
</svg>
