<?xml version="1.0" encoding="UTF-8"?>
<!DOCTYPE svg PUBLIC "-//W3C//DTD SVG 1.1//EN" "http://www.w3.org/Graphics/SVG/1.1/DTD/svg11.dtd">
<!-- Creator: CorelDRAW -->
<svg xmlns="http://www.w3.org/2000/svg" xml:space="preserve" width="2.40449in" height="2.36438in" version="1.1" style="shape-rendering:geometricPrecision; text-rendering:geometricPrecision; image-rendering:optimizeQuality; fill-rule:evenodd; clip-rule:evenodd"
viewBox="0 0 479.34 471.34"
 xmlns:xlink="http://www.w3.org/1999/xlink"
 xmlns:xodm="http://www.corel.com/coreldraw/odm/2003">
 <defs>
  <style type="text/css">
   <![CDATA[
    .fil0 {fill:white}
   ]]>
  </style>
 </defs>
 <g id="Layer_x0020_1">
  <metadata id="CorelCorpID_0Corel-Layer"/>
  <g id="_2190746557760">
   <path class="fil0" d="M243.84 143.04c-6.05,-2.39 -6.18,-3.96 -10.17,-8.44l-7.31 -7.78c-63.8,-59.99 -165.49,1.74 -149.54,87.35 5.45,29.24 22.43,51.89 41.9,72.86 1.92,2.07 -0.01,-0.09 2.59,3.03 2.88,3.47 5.68,6.68 9.75,10.88l30.35 29.83c14.34,12.03 30.87,28.18 45.75,38.73l20.94 15.3c-1.6,-36.64 -12.69,-26.2 -0.26,-90.77 4.94,-25.67 21.59,-53.05 36.14,-66.89 4.21,-4.01 8.31,-9.19 11.98,-12.47 32.4,-28.92 65.96,-39.1 108.21,-45.68 7.87,-1.23 16.47,-0.54 24.24,-2.13 -12.61,-18.02 -8.78,-25.08 -36.16,-46.99 -31.61,-25.29 -82.37,-21.21 -110.7,5.37 -4.12,3.87 -12.58,15.35 -17.71,17.79z"/>
   <path class="fil0" d="M252.37 394.52c4.5,-4.31 4.32,-4.89 7.18,-12.81l17.37 -33.03c1.64,-2.62 1.64,-2.24 3.07,-4.32 8.02,-11.64 15.99,-22.89 27.05,-32.76l2.04 -1.77c23.15,-20.71 12.25,-15.72 44.61,-35.91l9.82 -6.92c4.88,-2.74 17.26,-9.1 23.6,-11.25 -27.13,19.25 -14.17,12.28 -28.69,24.5l-16.86 16.95c-13.67,12.99 -16.88,17.55 -28.91,33.11 -1.49,1.92 -1.58,1.92 -3.18,4.42 -9.88,15.42 -6.18,6.91 -16.64,26.79 -31.01,58.91 -20.4,53.12 31.81,46.73 15.53,-1.9 28.93,-7.64 42.65,-13.46 6.36,-2.7 14.68,-6.26 19.38,-9.13 5.64,-3.45 10.41,-7.97 16,-12.13 4.69,-3.5 11.24,-8.19 15.55,-12.83 3.52,-3.79 2.62,-3.24 6.32,-6.85 12.08,-11.8 21.03,-28.23 28.84,-42.73 16.18,-30.05 21.68,-81.81 25.55,-115.41 1.32,-11.47 -0.87,-19.59 -0.59,-30.01 -4.52,1.04 -17.27,6.29 -22.62,8.52 -25.14,10.47 -81.05,12.6 -120.46,26.2l-20.04 10.13c-16.64,11.41 -4.01,0.08 -25.55,17.74l-20.92 24.45c-5.55,8.09 -17.12,28.38 -20.25,40.15 -13.56,51.05 -6.94,55.76 3.88,101.64z"/>
   <path class="fil0" d="M418.47 383.53c-0.68,0.31 -1.59,0.02 -2.01,1.01 -0.36,0.82 -3.1,1.59 -3.68,1.92 -0.33,0.19 -3.7,2.33 -4.01,2.54 -28.4,19.03 -34.98,20.41 -65.24,35.78 -60.47,30.72 -121.62,34.33 -185.74,10.57 -17.31,-6.41 -45.41,-21 -58.33,-33.34l-42.96 -46.97c-2.23,-3.32 -1.72,-3.32 -4.01,-7.18 -28.77,-48.53 -40.44,-101.42 -26.69,-158.6 5.45,-22.66 12.92,-45.05 25.32,-64.45l13.91 -19.78c36.09,-46.84 87.9,-79.36 156.23,-82.96 30.34,-1.6 53.61,2.93 80.27,9.3 27.35,6.54 53.64,23.83 75.28,40.79 0.43,0.34 1.72,1.26 2.17,1.59 0.91,0.66 1.49,0.97 3.33,2.36 17.02,12.85 44.51,50.98 52.64,72.75l7.93 17.74 18.78 -8.3c-4.92,-16.6 -13.67,-36.31 -23.21,-50.02 -25.69,-36.92 -51.19,-63.01 -92.83,-82.34 -12.82,-5.95 -22.51,-11.18 -36.36,-14.19 -8.17,-1.78 -10.88,-4.14 -18.78,-5.86 -20.96,-4.56 -46.78,-7 -68.81,-5.4 -27.85,2.02 -56.53,9.09 -80.81,18.58l-26.35 13.4c-0.35,0.21 -0.81,0.5 -1.16,0.71 -12.11,7.42 -22.28,16.92 -33.48,24.89l-41.06 45.56 -13.71 23.98c-2.92,6.03 -4.6,8.46 -7.65,16.87 -4.89,13.5 -10.12,24.33 -12.07,38.43 -9.35,67.54 -9.17,101.91 21.58,165.59 8.61,17.84 29.33,43.25 43.75,56.13l19.3 16.25c5.2,3.31 3.19,2.34 7.49,5.88 15.58,12.86 45.29,27.68 65.79,33.95 6.6,2.02 12.78,2.72 19.8,4.87 15.89,4.86 50.74,6.53 67.5,5.44 61.76,-3.99 113.14,-23.77 156.32,-69.01 0.27,-0.28 0.65,-0.69 0.92,-0.97l10.62 -17.51z"/>
  </g>
 </g>
</svg>
