<?xml version="1.0" encoding="UTF-8"?>
<!DOCTYPE svg PUBLIC "-//W3C//DTD SVG 1.1//EN" "http://www.w3.org/Graphics/SVG/1.1/DTD/svg11.dtd">
<!-- Creator: CorelDRAW -->
<svg xmlns="http://www.w3.org/2000/svg" xml:space="preserve" width="1.9806in" height="2.36439in" version="1.1" style="shape-rendering:geometricPrecision; text-rendering:geometricPrecision; image-rendering:optimizeQuality; fill-rule:evenodd; clip-rule:evenodd"
viewBox="0 0 373.84 446.28"
 xmlns:xlink="http://www.w3.org/1999/xlink"
 xmlns:xodm="http://www.corel.com/coreldraw/odm/2003">
 <defs>
  <style type="text/css">
   <![CDATA[
    .fil0 {fill:white}
   ]]>
  </style>
 </defs>
 <g id="Layer_x0020_1">
  <metadata id="CorelCorpID_0Corel-Layer"/>
  <path class="fil0" d="M186.92 0c102.81,0 186.92,84.11 186.92,186.92l0 72.44c0,102.81 -84.11,186.92 -186.92,186.92 -102.81,0 -186.92,-84.11 -186.92,-186.92l0 -72.44c0,-102.81 84.11,-186.92 186.92,-186.92zm0 17.12c93.39,0 169.8,76.41 169.8,169.8l0 72.44c0,93.39 -76.41,169.8 -169.8,169.8 -93.39,0 -169.8,-76.41 -169.8,-169.8l0 -72.44c0,-93.39 76.41,-169.8 169.8,-169.8zm13.41 371.57c16.95,-14.71 45.94,-26.87 70.42,-46.68 60.11,-48.65 64.82,-96.09 49.71,-172.23 -5.7,-28.74 -6.71,-11.25 -41.18,19.01 -78.61,69.03 -110.23,85.73 -98.75,198.08 2.12,20.78 9.1,11.55 19.8,1.82zm-72.25 -232.07l36.71 0c6.46,0 11.72,5.26 11.72,11.72l0 37.67 5.09 0c8.85,0 16.06,-7.22 16.06,-16.06l0 -21.6c0,-6.46 5.26,-11.72 11.72,-11.72l36.39 0 0 -2.85c0,-8.85 -7.22,-16.06 -16.06,-16.06l-20.32 0c-6.46,0 -11.72,-5.26 -11.72,-11.72l0 -37.35 -5.09 0c-8.85,0 -16.06,7.22 -16.06,16.06l0 21.28c0,6.46 -5.26,11.72 -11.72,11.72l-20.64 0c-8.85,0 -16.06,7.22 -16.06,16.06l0 2.85zm41.35 226.78c-17.25,-12.5 -42.22,-24 -63.71,-41.4 -60.11,-48.66 -64.82,-96.09 -49.71,-172.23 5.7,-28.74 6.71,-11.26 41.18,19.01 40.82,35.85 68.97,57.59 84.99,85.94 -16.64,33.46 -16.26,71.95 -12.75,108.68z"/>
 </g>
</svg>
